<svg xmlns="http://www.w3.org/2000/svg" viewBox="0 0 64 64" fill="none">
  <defs>
    <linearGradient id="g1" x1="0" y1="0" x2="64" y2="64" gradientUnits="userSpaceOnUse">
      <stop stop-color="#38bdf8"/><stop offset="1" stop-color="#a78bfa"/>
    </linearGradient>
  </defs>
  <!-- frame sudut scan -->
  <path stroke="url(#g1)" stroke-width="3" d="M8 20v-6a6 6 0 0 1 6-6h6M56 20v-6a6 6 0 0 0-6-6h-6M8 44v6a6 6 0 0 0 6 6h6M56 44v6a6 6 0 0 1-6 6h-6"/>
  <!-- siluet wajah sederhana -->
  <circle cx="32" cy="28" r="9" stroke="url(#g1)" stroke-width="3"/>
  <path d="M18 50c3-8 12-12 14-12s11 4 14 12" stroke="url(#g1)" stroke-width="3" fill="none" stroke-linecap="round"/>
</svg>
